<svg xmlns="http://www.w3.org/2000/svg" version="1.1" xmlns:xlink="http://www.w3.org/1999/xlink" xmlns:svgjs="http://svgjs.dev/svgjs" width="1000" height="623" viewBox="0 0 1000 623"><g transform="matrix(1,0,0,1,-0.6060606060606233,0.2522267206477409)"><svg viewBox="0 0 396 247" data-background-color="#a2a6aa" preserveAspectRatio="xMidYMid meet" height="623" width="1000" xmlns="http://www.w3.org/2000/svg" xmlns:xlink="http://www.w3.org/1999/xlink"><g id="tight-bounds" transform="matrix(1,0,0,1,0.2400000000000091,-0.09999999999999432)"><svg viewBox="0 0 395.52 247.2" height="247.2" width="395.52"><g><svg></svg></g><g><svg viewBox="0 0 395.52 247.2" height="247.2" width="395.52"><g transform="matrix(1,0,0,1,133.27693198263387,37.08)"><svg viewBox="0 0 128.96613603473224 173.04" height="173.04" width="128.96613603473224"><g><svg viewBox="0 0 128.96613603473224 173.04" height="173.04" width="128.96613603473224"><g><svg viewBox="0 0 128.96613603473224 173.04" height="173.04" width="128.96613603473224"><g><svg viewBox="0 0 128.96613603473224 173.04" height="173.04" width="128.96613603473224"><g><svg viewBox="0 0 128.96613603473224 173.04" height="173.04" width="128.96613603473224"><g><svg viewBox="0 0 128.96613603473224 173.04" height="173.04" width="128.96613603473224"><g transform="matrix(1,0,0,1,0,0)"><svg width="128.96613603473224" viewBox="2.3 -34.15 25.750000000000004 34.55" height="173.04" data-palette-color="#1b4571"><path d="M28.05-6.85L28.05-1.65Q24.95 0.4 19.45 0.4L19.45 0.4Q11.9 0.4 7.1-4.3 2.3-9 2.3-16.9L2.3-16.9Q2.3-24.55 7.13-29.35 11.95-34.15 19.35-34.15L19.35-34.15Q24.75-34.15 28-32.3L28-32.3 28-27.25Q25.8-28.45 24.03-28.93 22.25-29.4 19.5-29.4L19.5-29.4Q14.45-29.4 11.08-25.98 7.7-22.55 7.7-16.9L7.7-16.9Q7.7-11.15 11.05-7.75 14.4-4.35 19.9-4.35L19.9-4.35Q24.75-4.35 28.05-6.85L28.05-6.85Z" opacity="1" transform="matrix(1,0,0,1,0,0)" fill="#1b4571" class="undefined-text-0" data-fill-palette-color="primary" id="text-0"></path></svg></g></svg></g></svg></g></svg></g></svg></g></svg></g></svg></g><g mask="url(#3c5ca426-1a8e-4114-b562-ad4a09ef6eba)"><g transform="matrix(2.5541666666666667, 0, 0, 2.5541666666666667, 91.76208333333332, 1)"><svg xmlns="http://www.w3.org/2000/svg" xmlns:xlink="http://www.w3.org/1999/xlink" version="1.1" x="0" y="0" viewBox="9 1 83 96" enable-background="new 0 0 100 100" xml:space="preserve" height="96" width="83" class="icon-none" data-fill-palette-color="accent" id="none"><g fill="#bf2051" data-fill-palette-color="accent"><path fill="#bf2051" d="M71.3 10.01C57.831 10.01 50.55 1 50.55 1s-7.306 9.01-20.774 9.01C17.371 10.01 9 2.528 9 2.528v48.928C9.378 83.682 50.5 97 50.5 97S92 83.682 92 51.456V2.528C92 2.528 83.703 10.01 71.3 10.01z" data-fill-palette-color="accent"></path></g></svg></g></g></svg></g><defs><mask id="3c5ca426-1a8e-4114-b562-ad4a09ef6eba"><rect width="640" height="400" fill="white"></rect><rect width="141.86274963820549" height="254.74118208" fill="black" x="249.06862518089724" y="72.62940896" id="transform-me" transform="matrix(1,0,0,1,-122.24000000000001,-76.4)"></rect></mask></defs></svg><rect width="395.52" height="247.2" fill="none" stroke="none" visibility="hidden"></rect></g></svg></g></svg>